<?xml version="1.0" encoding="iso-8859-1"?>
<!-- Generator: Adobe Illustrator 19.0.0, SVG Export Plug-In . SVG Version: 6.00 Build 0)  -->
<svg version="1.1" id="Layer_1" xmlns="http://www.w3.org/2000/svg" xmlns:xlink="http://www.w3.org/1999/xlink" x="0px" y="0px"
	 viewBox="0 0 512 512" style="enable-background:new 0 0 512 512;" xml:space="preserve">
<path style="fill:#EC589B;" d="M384.609,173.005l37.95-37.95l43.828,43.828L512,133.271l-43.828-43.828L512,45.614L466.387,0.001
	l-43.828,43.828L378.73,0.001l-45.613,45.613l43.828,43.828l-37.95,37.95c-83.293-61.244-201.407-54.219-276.708,21.082
	c-83.051,83.051-83.051,218.187,0,301.237s218.187,83.051,301.237,0C438.826,374.412,445.853,256.297,384.609,173.005z
	 M107.902,404.1c-57.9-57.9-57.9-152.111,0-210.011s152.111-57.9,210.013,0c57.9,57.9,57.9,152.111,0,210.011
	S165.803,461.999,107.902,404.1z"/>
<g>
</g>
<g>
</g>
<g>
</g>
<g>
</g>
<g>
</g>
<g>
</g>
<g>
</g>
<g>
</g>
<g>
</g>
<g>
</g>
<g>
</g>
<g>
</g>
<g>
</g>
<g>
</g>
<g>
</g>
</svg>
